<svg version="1.1" id="Layer_1" xmlns="http://www.w3.org/2000/svg" x="0" y="0" viewBox="0 0 141 127" style="enable-background:new 0 0 141 127" xml:space="preserve"><style>.st0{fill:#a85802}.st2{fill:#79d496}.st3{fill:#ffdc36}.st6{opacity:.5}</style><path class="st0" d="M48.22 61.45c2.15 0 2.38-3.44 2.33-5.46-2.25-.12-3.88.29-3.88.29s-.35.13-.94.44c.02 1.8.37 4.73 2.49 4.73z"/><path d="M48.22 61.6c-2.25 0-2.62-3.06-2.64-4.88 0-.06.03-.11.08-.13.58-.31.94-.45.96-.45.08-.02 1.69-.42 3.94-.3.08 0 .14.07.14.15.04 1.73-.12 4.01-1.14 5.06-.37.36-.82.55-1.34.55zm-2.34-4.78c.03 1.72.38 4.48 2.34 4.48.45 0 .81-.16 1.12-.48.96-.99 1.08-3.3 1.06-4.69-2.12-.09-3.66.29-3.69.3-.01 0-.32.12-.83.39z"/><path d="M67.84 81.68c-3.86-3.46-7.22-14.03-7.22-14.03l3.66-3.96s-9.05-7.02-12.1-7.52c-.57-.1-1.12-.15-1.64-.18.05 2.03-.18 5.46-2.33 5.46-2.11 0-2.47-2.93-2.49-4.73-2.16 1.16-7.47 4.81-9.71 13.68 4.06 1.31 4.5 1.43 4.54 1.43 0 0 .01 0 0 0-.04.13-5.92 21.16 9.79 28.36 12.91 5.59 22.77 2.64 22.77 2.64s1.12-12.91 8.34-21.66c-5.78.41-9.75 3.97-13.61.51z" style="fill:#b0d762"/><path d="M66.25 103.76c-5.33 0-10.7-1.16-15.96-3.43-8.19-3.75-10.45-11.3-10.89-16.96-.45-5.65.73-10.51.97-11.43-.5-.14-1.97-.6-4.4-1.39-.08-.03-.12-.11-.1-.18 2.25-8.91 7.6-12.6 9.79-13.77.05-.03.1-.03.15 0 .04.03.07.08.07.13.02 1.71.35 4.58 2.34 4.58.45 0 .81-.16 1.12-.48 1-1.02 1.09-3.47 1.05-4.83 0-.04.02-.08.05-.11.03-.03.07-.05.12-.04.56.03 1.12.09 1.65.18 3.05.51 11.8 7.27 12.17 7.55.03.03.05.06.06.11 0 .04-.01.08-.04.12l-3.6 3.9c.33 1 3.54 10.65 7.15 13.88 1.11 1 2.29 1.46 3.71 1.46 1.35 0 2.81-.42 4.35-.87 1.61-.47 3.43-1 5.45-1.14.06-.01.12.03.15.08s.02.12-.02.17c-7.11 8.61-8.29 21.44-8.3 21.57-.01.06-.05.12-.11.13-.04 0-2.68.77-6.93.77zM40.7 71.9c-.13.46-1.47 5.51-1 11.45.44 5.59 2.66 13.02 10.71 16.71 5.22 2.26 10.55 3.41 15.84 3.41 3.75 0 6.22-.61 6.73-.74.13-1.25 1.51-13.1 8.13-21.36-1.84.17-3.53.66-5.03 1.09-1.57.45-3.05.88-4.44.88-1.5 0-2.74-.49-3.91-1.54-3.85-3.45-7.13-13.67-7.26-14.1-.02-.05 0-.11.03-.15l3.55-3.84c-1.13-.86-9.12-6.93-11.9-7.39-.47-.08-.96-.13-1.46-.17.03 1.7-.16 3.87-1.14 4.89-.37.38-.82.56-1.34.56-2.15 0-2.58-2.79-2.64-4.62-2.26 1.27-7.21 4.91-9.38 13.32 3.57 1.15 4.24 1.34 4.36 1.37.02 0 .04 0 .07.02.06.03.1.1.09.17 0 .01-.01.02-.01.04z"/><path d="M40.56 71.98s-.01 0 0 0c-.09 0-.15-.07-.15-.15 0-.02 0-.03.01-.05.01-.04.04-.08.08-.09.04-.02.09-.02.13 0 .06.03.1.1.09.17-.03.07-.09.12-.16.12z"/><path class="st2" d="M61.49 61.61c-.63-.46-1.33-.95-2.06-1.46-7.94 7.04-17.43 6.1-21.59 5.21-.32.66-.63 1.37-.91 2.12 3.93.99 14.81 2.62 24.56-5.87zM61.29 69.59c-.37-1.02-.6-1.73-.66-1.9-6.49 4.35-15.45 4.61-20.14 4.39-.09.35-.25 1.02-.42 1.95 3.6.46 14.42 1.27 21.22-4.44z"/><path class="st2" d="M57.27 58.72c-.57-.36-1.12-.71-1.66-1.02-1.92 1.2-3.83 1.96-5.63 2.42-.35.79-.9 1.33-1.75 1.33-.68 0-1.18-.31-1.54-.78-2.39.21-4.36-.04-5.53-.27a19.2 19.2 0 0 0-1.46 1.83c2.68.5 11.46 1.61 17.57-3.51zM77.83 81.81c-.63.16-1.24.34-1.83.51-2.23 4.16-7.1 14.06-6.92 21.17 1.81-.15 3.08-.42 3.67-.56-1.92-8.01 2.98-17.55 5.08-21.12zM63.48 74.93c-.44-.94-.84-1.87-1.19-2.75-7.29 5.96-18.17 5.64-22.67 5.19-.08.89-.14 1.85-.16 2.86 3.81.72 15.23 2.03 24.02-5.3zM72.67 83.11c-.62.08-1.21.1-1.8.02-.94 3.39-4.56 11.66-18.09 18.03 2.25.82 4.38 1.38 6.37 1.76 10.65-7.02 13.01-16.3 13.52-19.81z"/><path class="st2" d="M68.94 82.48c-.37-.21-.73-.47-1.1-.8l-.07-.07c-1.76 3.58-7.68 11.34-25.79 10.74.83 1.58 1.91 3.09 3.31 4.43 17.63-2.18 22.4-10.63 23.65-14.3z"/><path class="st2" d="M65.92 79.37c-.37-.55-.73-1.14-1.07-1.76-9.91 9-21.56 7.33-25.22 6.51.15 1.41.4 2.86.81 4.29 3.75.58 15.9 1.45 25.48-9.04z"/><path d="M40.56 71.98c-.02 0-.04 0-.05-.01-.08-.03-.12-.12-.09-.19l1.99-5.24a.155.155 0 0 1 .29.11l-1.99 5.24c-.03.05-.09.09-.15.09zM61.12 67.28a.15.15 0 0 1-.11-.04l-4.26-4.18a.157.157 0 0 1 0-.22c.06-.06.16-.06.22 0l4.26 4.18c.06.06.06.16 0 .22a.15.15 0 0 1-.11.04zM68.89 70.87c-.1 0-.2-.04-.28-.11l-5.76-5.49a.41.41 0 0 1-.01-.58c.15-.16.41-.17.57-.01l5.76 5.49c.16.16.17.41.01.57-.08.09-.18.13-.29.13zM88.58 103.85c-.02 0-.05 0-.07-.01a.393.393 0 0 1-.32-.47c1.29-6.87 3.25-18.02 3.14-19.38-.93-.4-7.16.58-12.79 1.79a.4.4 0 0 1-.48-.31c-.05-.22.09-.44.31-.49 13.29-2.85 13.62-1.68 13.73-1.29.35 1.22-2.53 16.73-3.11 19.83-.05.19-.22.33-.41.33z"/><path d="M74.04 98.46c-.16 0-.31-.09-.37-.24a.41.41 0 0 1 .21-.54c.59-.26 14.61-6.34 22.34-6.03 7.67.3 25.81 4.14 25.99 4.18a.4.4 0 0 1 .31.48c-.04.22-.26.36-.48.31-.18-.04-18.25-3.86-25.86-4.16-7.54-.29-21.84 5.9-21.98 5.97-.05.02-.11.03-.16.03z"/><path class="st0" d="M93.73 104.85c4.16-.56 5.68-1.58 6.01-2.68-4.8-.3-11.11 1.1-11.11 1.1-.41.14-.81.51-1.16 1 .76.36 2.74 1.06 6.26.58z"/><path d="M91.45 105.16c-2.16 0-3.46-.48-4.04-.76a.159.159 0 0 1-.08-.1.2.2 0 0 1 .02-.13c.39-.55.82-.92 1.23-1.05.07-.01 5.23-1.15 9.73-1.15.51 0 .99.01 1.45.04.04 0 .09.03.11.07.03.04.03.09.02.13-.41 1.38-2.42 2.29-6.14 2.79-.8.11-1.57.16-2.3.16zm-3.74-.95c.62.27 1.83.65 3.74.65.71 0 1.47-.05 2.26-.16 3.36-.46 5.32-1.26 5.82-2.39-.39-.02-.8-.03-1.22-.03-4.46 0-9.59 1.13-9.64 1.14-.31.1-.64.37-.96.79z"/><path class="st3" d="m100.16 102.2-.42-.03c-.33 1.11-1.85 2.12-6.01 2.68-3.53.48-5.5-.22-6.26-.58-.59.83-1.02 1.98-1.08 2.86-.04.6-.08 1.28.18 1.88.75-.95 2.58-2.29 7.12-3.03 6.73-1.09 11.57-1.54 12.79.27.28-.28.45-.54.46-.75.14-1.95-1.94-2.88-6.78-3.3z"/><path d="M86.58 109.16h-.02c-.05-.01-.1-.04-.12-.09-.28-.65-.23-1.37-.19-1.95.06-.92.5-2.1 1.1-2.94.04-.06.13-.08.19-.05.56.27 1.81.73 3.91.73.71 0 1.48-.05 2.26-.16 3.54-.48 5.52-1.35 5.89-2.58.02-.07.08-.12.16-.11l.42.03c5.05.44 7.05 1.44 6.93 3.46-.02.24-.19.53-.5.85-.03.03-.08.05-.12.04-.04 0-.09-.03-.11-.07-.53-.78-1.84-1.16-4.01-1.16-1.95 0-4.53.29-8.63.95-4.45.72-6.28 2.02-7.03 2.97-.04.06-.08.08-.13.08zm.95-4.7c-.53.79-.92 1.85-.97 2.68-.03.5-.07 1.06.08 1.58.88-.97 2.8-2.19 7.04-2.88 4.13-.67 6.72-.96 8.68-.96 2.18 0 3.5.36 4.15 1.14.18-.21.29-.39.29-.53.11-1.81-1.81-2.72-6.65-3.14-.1-.01-.2-.02-.3-.02-.48 1.31-2.48 2.18-6.1 2.67-.8.11-1.58.16-2.3.16-2.02 0-3.29-.42-3.92-.7z"/><g><path d="M93.7 105.98c-4.54.74-6.38 2.07-7.12 3.03.45 1.03 1.76 1.87 5.45 1.84 6.43-.08 12.75-2.87 14.47-4.6-1.23-1.8-6.07-1.36-12.8-.27z" style="fill:#ff8a36"/><path d="M91.84 111c-3.12 0-4.83-.61-5.4-1.93a.157.157 0 0 1 .02-.16c.78-1 2.67-2.34 7.22-3.08 4.13-.67 6.72-.96 8.68-.96 2.31 0 3.67.41 4.26 1.29.04.06.04.14-.02.19-1.87 1.89-8.33 4.56-14.58 4.64h-.18zm-5.08-1.97c.55 1.12 2.21 1.66 5.08 1.66h.19c6.51-.08 12.55-2.86 14.27-4.46-.57-.71-1.86-1.06-3.93-1.06-1.95 0-4.53.29-8.63.95-4.36.72-6.2 1.96-6.98 2.91z"/></g><g><path class="st0" d="M126 93.94c1.73-3.81 2.39-8.13 1.07-8.23-.59-.05-1.34.64-1.99 1.42-1.78 3.62-3 7.72-3 7.72-.17.9-.13 1.81.15 2.55 1.02.35 2.66-1.03 3.77-3.46z"/><path d="M122.56 97.61c-.13 0-.26-.02-.38-.06a.135.135 0 0 1-.09-.09c-.28-.75-.34-1.68-.16-2.63.02-.05 1.25-4.17 3.01-7.76.88-1.06 1.59-1.55 2.14-1.51.24.02.45.15.58.39.66 1.13-.02 4.74-1.52 8.06-.97 2.11-2.44 3.6-3.58 3.6zm-.21-.33c.07.02.14.02.21.02.86 0 2.27-1.18 3.29-3.43 1.44-3.19 2.15-6.75 1.54-7.78-.09-.15-.2-.23-.34-.24h-.04c-.31 0-.87.24-1.81 1.37-1.73 3.53-2.95 7.63-2.97 7.67-.16.86-.12 1.71.12 2.39z"/><g><path class="st3" d="M129.81 81.74c-1.71.17-3.38 2.64-4.73 5.39.65-.78 1.4-1.47 1.99-1.42 1.32.1.66 4.42-1.07 8.23-1.11 2.44-2.75 3.81-3.77 3.47.31.81.9 1.41 1.83 1.51 1.78.2 3.81-1.78 5.24-6.25 1.42-4.48 2.79-11.09.51-10.93z"/><path d="M124.31 99.08c-.09 0-.18 0-.27-.01-.92-.11-1.6-.67-1.96-1.61a.142.142 0 0 1 .04-.16c.04-.04.1-.06.16-.04.09.03.18.04.28.04.87 0 2.28-1.18 3.3-3.43 1.44-3.19 2.15-6.75 1.54-7.78-.09-.15-.2-.23-.34-.24h-.04c-.31 0-.87.24-1.81 1.37-.05.06-.14.07-.2.03a.136.136 0 0 1-.05-.19c1.71-3.48 3.34-5.32 4.86-5.47h.09c.35 0 .64.15.85.44 1.08 1.48-.02 6.69-1.29 10.69-1.3 3.98-3.21 6.36-5.16 6.36zm-1.83-1.47c.26.52.73 1.06 1.6 1.16.08.01.15.01.23.01 1.8 0 3.61-2.3 4.84-6.16 1.35-4.25 2.29-9.12 1.34-10.42a.716.716 0 0 0-.67-.31c-1.24.13-2.65 1.62-4.12 4.35.53-.48.99-.71 1.37-.69.24.02.45.15.58.39.66 1.13-.02 4.74-1.52 8.06-.98 2.17-2.5 3.68-3.65 3.61z"/></g></g><g><path class="st0" d="m66.11 26.88 1.22 3.76c-4.17 2.44-9.86 2.85-9.86 2.85l-.71-3.97-.81 4.17c-2.85 1.22-10.27 1.53-10.27 1.53l.31-3.25s-1.12 1.32-2.03 3.35c-2.64.21-7.42-.71-7.42-.71s-2.14 4.68-3.86 9.96c-.2-6.2-5.8-5.18-5.69-1.53.2 5.9 4.07 7.22 5.18 5.18.81 3.66 4.46 5.45 4.46 5.45s17.27 9.49 27.36-2.48c9.32-12.17 2.12-24.31 2.12-24.31z"/><path d="M50.46 57.4c-7.31 0-13.85-3.55-13.92-3.59-.03-.02-3.49-1.75-4.45-5.21-.35.43-.85.68-1.43.68-1.46 0-3.68-1.66-3.84-6.23-.03-.88.27-1.69.83-2.26.52-.53 1.22-.83 1.94-.83 1.3 0 2.85 1.02 3.17 3.84 1.67-4.93 3.61-9.21 3.63-9.25.03-.06.1-.1.17-.09.04.01 3.89.74 6.54.74.27 0 .52-.01.75-.02.91-1.98 2.01-3.29 2.02-3.31a.15.15 0 0 1 .18-.04c.06.03.1.09.09.16l-.29 3.08c1.13-.05 7.37-.41 9.97-1.47l.8-4.09a.16.16 0 0 1 .15-.12c.06 0 .14.05.15.13l.69 3.83c.88-.08 5.83-.62 9.55-2.75l-1.18-3.64c-.02-.07.01-.16.08-.19s.15 0 .19.06c.07.12 7.14 12.37-2.16 24.49-3.42 4.03-8.01 6.08-13.63 6.08zm-18.31-9.32h.02c.06.01.11.05.13.12.79 3.54 4.34 5.32 4.38 5.34.07.04 6.55 3.55 13.78 3.55 5.54 0 10.04-2.01 13.39-5.99 6.61-8.61 4.83-17.29 3.3-21.51l.33 1c.02.07-.01.14-.07.18-4.15 2.43-9.87 2.86-9.93 2.87a.152.152 0 0 1-.16-.12l-.57-3.17-.66 3.37c-.01.05-.04.09-.09.11-2.84 1.22-10.02 1.53-10.32 1.54-.05 0-.09-.01-.12-.05-.03-.03-.04-.08-.04-.12l.26-2.73c-.4.54-1.09 1.57-1.69 2.91-.02.05-.07.08-.13.09-.26.02-.55.03-.86.03-2.42 0-5.81-.6-6.48-.72-.33.73-2.24 5.06-3.81 9.84a.14.14 0 0 1-.17.1.151.151 0 0 1-.13-.15c-.11-3.19-1.64-4.32-2.92-4.32-.63 0-1.26.27-1.72.74-.5.52-.77 1.25-.75 2.04.13 3.85 1.92 5.93 3.54 5.93.59 0 1.07-.29 1.36-.81a.17.17 0 0 1 .13-.07z"/><g><path d="M69.86 29.75c2.56-1.28 3.08-1.62 3.08-1.62S70.97 12.56 53.88 11.2c-9.91-.34-14.96 1.37-18.21 4.1-1.71-2.14-2.05-2.31-2.05-2.31l.43 2.91-2.82-.51 1.45 1.71s-7.78 1.03-11.8 15.56c-2.48 11.46-4.87 14.02-5.72 14.71 0 0 3.5 4.53 4.36 5.3 1.03-1.2 1.62-1.88 1.62-1.88l.09 2.31 1.45.34 1.37-1.54-.26 2.05s5.98 2.22 11.03 1.2l.26-1.28.43.86 1.11-1.03s-3.64-1.79-4.46-5.45c-1.12 2.03-4.98.71-5.18-5.18-.1-3.66 5.49-4.68 5.69 1.53 1.73-5.29 3.86-9.96 3.86-9.96s4.78.91 7.42.71c.91-2.03 2.03-3.35 2.03-3.35l-.31 3.25s7.42-.31 10.27-1.53l.81-4.17.71 3.97s5.69-.41 9.86-2.85l-1.22-3.76s7.2 12.14-2.15 24.32c1.37 0 1.71-.08 1.71-.08l.34-1.2.6 1.11s4.36-.94 6.92-2.74l-.68-1.8 1.96 1.71s2.57-1.88 3.68-3.59c-2.63-.53-7.85-8.48-8.62-14.89z" style="fill:#f27333"/><path d="M31.92 55.56c-4.17 0-8.15-1.46-8.19-1.48-.07-.03-.11-.09-.1-.16l.2-1.56-1.04 1.17c-.04.04-.1.06-.15.05l-1.45-.34a.16.16 0 0 1-.12-.14L21 51.17c-.27.31-.74.85-1.37 1.59a.16.16 0 0 1-.11.05.15.15 0 0 1-.11-.04c-.85-.77-4.23-5.13-4.38-5.32-.05-.07-.04-.16.03-.21 1.13-.91 3.38-4.01 5.67-14.62 2.09-7.55 5.21-11.41 7.46-13.31 1.96-1.66 3.58-2.17 4.2-2.31l-1.28-1.51a.168.168 0 0 1-.02-.18c.03-.05.09-.08.16-.07l2.61.47-.4-2.69c-.01-.06.02-.11.06-.15.05-.03.11-.04.16-.01.04.02.4.24 2 2.23 3.43-2.82 8.3-4.08 15.76-4.08.78 0 1.6.01 2.43.04 17.03 1.36 19.19 16.9 19.21 17.06.01.05-.02.11-.07.15-.02.01-.54.35-3 1.58.37 2.88 1.67 6.33 3.58 9.48 1.75 2.89 3.69 4.92 4.92 5.16.05.01.09.04.11.09.02.05.02.1-.01.14-1.11 1.71-3.61 3.55-3.71 3.63-.06.04-.13.04-.19-.01l-1.51-1.31.46 1.23c.03.07 0 .14-.05.18-2.56 1.79-6.94 2.75-6.98 2.76-.07.02-.13-.02-.17-.08l-.42-.78-.24.84c-.01.05-.06.09-.11.11-.01 0-.38.09-1.75.09a.16.16 0 0 1-.14-.08c-.02-.05-.02-.12.02-.16 6.62-8.64 4.83-17.33 3.3-21.54l.33 1.03c.02.07-.01.14-.07.18-4.15 2.43-9.87 2.86-9.93 2.87a.152.152 0 0 1-.16-.12l-.57-3.17-.66 3.37c-.01.05-.04.09-.09.11-2.84 1.22-10.02 1.53-10.32 1.54-.05 0-.09-.01-.12-.05-.03-.03-.04-.08-.04-.12l.26-2.73c-.4.54-1.09 1.57-1.69 2.91-.02.05-.07.08-.13.09-.26.02-.55.03-.86.03-2.42 0-5.81-.6-6.48-.72-.33.73-2.24 5.06-3.81 9.84a.14.14 0 0 1-.17.1.151.151 0 0 1-.13-.15c-.11-3.19-1.64-4.32-2.92-4.32-.63 0-1.26.27-1.72.74-.5.52-.77 1.25-.75 2.04.13 3.85 1.92 5.93 3.54 5.93.59 0 1.07-.29 1.36-.81.03-.06.09-.09.16-.08.06.01.11.05.13.12.79 3.54 4.34 5.32 4.38 5.34.04.02.08.06.08.11.01.05-.01.1-.05.13l-1.11 1.02c-.03.03-.08.05-.13.04a.178.178 0 0 1-.11-.08l-.23-.46-.17.84c-.01.06-.06.11-.12.12-.87.18-1.85.28-2.9.28zm-7.97-1.73c.68.24 4.25 1.42 7.97 1.42.99 0 1.91-.08 2.76-.25l.24-1.18c.01-.06.07-.11.13-.12.06-.01.13.03.16.08l.34.67.81-.75c-.74-.42-3.43-2.12-4.26-5.11-.35.43-.85.68-1.43.68-1.46 0-3.68-1.66-3.84-6.23-.03-.88.27-1.69.83-2.26.51-.53 1.22-.83 1.94-.83 1.3 0 2.85 1.02 3.17 3.84 1.67-4.93 3.61-9.21 3.63-9.25.03-.06.1-.1.17-.09.04.01 3.89.74 6.54.74.27 0 .52-.01.75-.02.91-1.98 2.01-3.29 2.02-3.31a.15.15 0 0 1 .18-.04c.06.03.1.09.09.16l-.29 3.08c1.13-.05 7.37-.41 9.97-1.47l.8-4.09a.16.16 0 0 1 .15-.12c.06 0 .14.05.15.13l.69 3.83c.88-.08 5.83-.62 9.55-2.75l-1.18-3.64c-.02-.07.01-.16.08-.19s.15 0 .19.06c.07.12 7.05 12.2-1.97 24.24.76-.01 1.13-.05 1.28-.07l.32-1.1c.02-.06.07-.1.13-.11.06 0 .12.02.15.08l.54 1.01c.69-.16 4.37-1.06 6.66-2.62l-.64-1.68c-.03-.07 0-.14.05-.18.06-.04.13-.03.19.01l1.88 1.63c.46-.35 2.41-1.87 3.42-3.3-2.85-.9-7.8-8.79-8.54-14.95-.01-.06.03-.13.08-.15 2-1 2.75-1.43 2.98-1.56-.21-1.31-2.84-15.41-18.91-16.7-.83-.03-1.64-.04-2.42-.04-7.47 0-12.31 1.27-15.68 4.11-.03.03-.07.04-.11.03a.11.11 0 0 1-.1-.06c-.92-1.15-1.44-1.73-1.72-2.01l.37 2.49c.01.05-.01.1-.05.13s-.09.05-.13.04l-2.4-.44L32.82 17c.04.04.05.1.03.16-.02.05-.07.09-.12.1-.02 0-1.95.28-4.34 2.31-2.21 1.88-5.28 5.68-7.34 13.13-2.24 10.35-4.47 13.64-5.66 14.69.53.68 3.24 4.15 4.14 5.05.96-1.12 1.52-1.76 1.52-1.76.04-.05.11-.06.16-.04.06.02.1.08.1.14l.08 2.19 1.25.29 1.31-1.47c.04-.05.12-.07.18-.04.06.03.1.09.09.16l-.27 1.92z"/></g></g><path d="M30.63 45.74a.15.15 0 0 1-.15-.13c-.28-1.99-1.75-2.3-1.81-2.31-.08-.02-.14-.1-.12-.18.02-.08.09-.14.18-.12.02 0 1.74.35 2.05 2.57.01.08-.05.16-.13.17h-.02zM46.18 40.69c0 .94-.36 1.71-.8 1.71-.44 0-.8-.77-.8-1.71s.36-1.71.8-1.71c.44 0 .8.77.8 1.71zM60.83 38.96c0 .94-.36 1.71-.8 1.71-.44 0-.8-.77-.8-1.71s.36-1.71.8-1.71c.44 0 .8.77.8 1.71z"/><g><path d="M52.95 55.53c-.12 0-.25-.01-.38-.02-2.87-.36-3.71-3.88-3.74-4.03-.02-.08.03-.16.12-.18.08-.02.16.03.18.11.01.03.82 3.46 3.48 3.8 2.64.34 3.99-3.47 4.01-3.51.03-.08.12-.12.19-.09.08.03.12.11.1.19-.06.15-1.33 3.73-3.96 3.73z"/><path d="M47.54 52.05h-.04c-.08 0-.15-.07-.15-.16 0-.08.08-.15.16-.15.01 0 1.24.03 1.9-1 .04-.07.14-.09.21-.05.07.05.09.14.05.21-.69 1.09-1.9 1.15-2.13 1.15z"/></g><g><path class="st0" d="M77.09 67.35s.47-1.96 1.9-1.76c1.42.21 1.56 3.32.54 5.08-1.02 1.76-2.64 2.64-3.12.95.41-2.37.68-4.27.68-4.27z"/><path d="M77.34 72.68c-.29 0-.82-.13-1.07-1.02a.085.085 0 0 1 0-.07c.4-2.34.67-4.25.68-4.26.02-.1.53-2.11 2.07-1.89.42.06.77.35 1 .83.55 1.14.39 3.19-.35 4.48-.68 1.17-1.59 1.93-2.33 1.93zm-.77-1.07c.15.51.41.76.77.76.62 0 1.44-.71 2.06-1.78.7-1.21.86-3.14.34-4.2-.19-.39-.45-.61-.77-.66-1.27-.18-1.72 1.63-1.73 1.65 0 .01-.27 1.9-.67 4.23z"/></g><g class="st6"><path class="st0" d="M40.18 37.15c12.21.13 23.79-3.35 27.25-6.41-5.29 2.54-9.96 2.75-9.96 2.75l-.71-3.97-.81 4.17c-2.85 1.22-10.27 1.53-10.27 1.53l.31-3.25s-1.12 1.32-2.03 3.35c-2.64.21-7.42-.71-7.42-.71s-2.14 4.68-3.86 9.96c-.2-6.2-5.8-5.18-5.69-1.53.2 5.9 4.07 7.22 5.18 5.18.81 3.66 4.46 5.45 4.46 5.45s7.59 4.17 15.64 3.49c-.26-.03-.51-.06-.78-.1-18.93-.79-13.95-19.91-11.31-19.91z"/></g><g class="st6"><path d="M67.81 101.5c-5.08.2-20-1.42-24.26-8.93-4.26-7.51.51-12.59 2.34-12.69 1.83-.1-.51 6.9-.51 6.9s19.7 5.78 20.81 4.47c2.13-3.06 4.95-6.29 6.65-8.16-1.76.26-3.39.03-4.99-1.4-3.86-3.46-7.22-14.03-7.22-14.03l3.66-3.96s-.35-.27-.93-.7c-.69 1.26-1.74 2.59-2.86 1.77-1.93-1.42-3.55-2.94-4.37-2.54-.81.41 1.73 2.34.41 2.23-1.32-.1-6.4-2.44-6.4-2.44l-1.73 9.04s-2.64-.81-3.25 1.52c-.61 2.33-1.02 5.28-3.55 6.29-2.54 1.02 0-5.68 1.22-10.25s-.1-3.66-1.12-1.12-1.83 3.15-3.45 2.74c-1.09-.27-1.54-1.28-1.16-3.21-.41 1.03-.78 2.15-1.09 3.37 4.06 1.31 4.5 1.43 4.54 1.43-.04.13-5.92 21.16 9.79 28.36 12.91 5.59 22.77 2.64 22.77 2.64s1.09-12.57 8.06-21.3c-9.34 8.55-8.43 19.77-13.36 19.97z" style="fill:#7286c7"/></g><g><path style="fill:#f7262e" d="m79.02 56.78-3.86 21.65-9.66 11.79-18.71-4.16 3.66-23.18 19.73 8.13z"/><path d="M65.5 90.38h-.03l-18.71-4.17a.154.154 0 0 1-.12-.17l3.66-23.18c.01-.05.03-.09.08-.11.04-.02.09-.03.13-.01l19.6 8.08 8.78-14.12c.04-.06.12-.09.18-.06.07.02.11.1.09.17L75.3 78.47c0 .03-.02.05-.03.07l-9.66 11.8c-.02.02-.07.04-.11.04zm-18.53-4.44 18.47 4.12 9.57-11.69 3.72-20.84-8.43 13.56c-.04.06-.12.09-.19.06l-19.55-8.06-3.59 22.85z"/></g><path d="M65.5 90.38h-.04c-.08-.02-.13-.1-.11-.19l4.68-19.22c.02-.08.11-.13.18-.11.08.02.13.1.11.18l-4.68 19.22a.14.14 0 0 1-.14.12z"/><g><path d="m70.65 70.24-.48.77-.87-.36c-.91 4.56-4.93 15.8-22.43 14.87l-.09.54 18.71 4.17 9.66-11.79.13-.74c-4.68 2.93-4.87-3.69-4.63-7.46z" style="fill:#c0262e"/></g><path d="M38.08 81.61c-.35 0-.69-.03-1-.1-.51-.11-.9-.42-1.15-.9-1.29-2.43 1.25-9 1.54-9.74a.41.41 0 0 1 .53-.23c.21.08.31.32.23.53-.76 1.92-2.52 7.29-1.58 9.06.15.28.34.43.61.49 2.86.63 8.05-2.5 8.1-2.53a.41.41 0 0 1 .56.14c.12.19.05.44-.14.56-.2.11-4.52 2.72-7.7 2.72z"/><g><path class="st0" d="M48.28 72.57s-.74-1.49-1.63-.95c-.88.54-2.63 6.2.13 7.66 2.44 1.29 6.78 1.49 7.73-2.1.95-3.59-1.02-6.24-3.12-5.63-2.02.75-2.63 1.63-3.11 1.02z"/><path d="M50.26 80.28c-1.2 0-2.5-.32-3.54-.87-.98-.52-1.53-1.59-1.57-3.11-.07-2.09.83-4.45 1.43-4.82.15-.09.31-.14.48-.14.78 0 1.34 1.1 1.37 1.15.08.1.17.12.24.12.19 0 .47-.16.87-.37.43-.23 1.02-.55 1.82-.84 1.01-.3 1.98.09 2.67.98.9 1.17 1.14 2.97.65 4.83-.53 1.95-2.13 3.07-4.42 3.07zm-3.21-8.63c-.11 0-.21.03-.32.1-.47.29-1.35 2.53-1.28 4.55.03.97.3 2.26 1.41 2.85 1 .53 2.24.83 3.4.83 1.26 0 3.46-.37 4.11-2.84.47-1.76.24-3.47-.6-4.56-.61-.8-1.48-1.13-2.33-.88-.77.29-1.35.6-1.77.83-.45.24-.75.4-1.01.4-.19 0-.36-.09-.49-.26-.16-.31-.62-1.02-1.12-1.02z"/></g></svg>