<svg version="1.1" id="Layer_1" xmlns="http://www.w3.org/2000/svg" x="0" y="0" viewBox="0 0 102 156" style="enable-background:new 0 0 102 156" xml:space="preserve"><style>.st0{fill:#0a0a0a}.st1{fill:#5a9048}.st2{fill:#85ca4d}.st3{fill:#ad9ace}.st6{fill:#a85802}.st7{fill:#e32c3b}.st8{fill:#b9babd}.st12{fill:#ffdc36}</style><path class="st0" d="M62.93 121.8c.14 0 .28-.09.32-.23l1.56-4.99a.35.35 0 0 0-.22-.42.33.33 0 0 0-.42.22l-1.56 4.99c-.06.17.05.36.22.41.04.02.07.02.1.02zM42.15 117.92c.12 0 .23-.06.29-.17l2.57-4.55c.09-.16.04-.36-.13-.45a.34.34 0 0 0-.46.13l-2.57 4.55a.33.33 0 0 0 .13.45c.06.03.12.04.17.04z"/><path class="st1" d="M58.8 119.84c2.23 2.5 3.44 4.76 3.22 5.97-2.73-.46-7.59-7.21-6.88-9.11.67.3 1.84 1.1 3.66 3.14z"/><path class="st0" d="M62.02 125.97h-.03c-1.8-.3-4.44-3.16-5.95-5.76-.54-.93-1.41-2.64-1.06-3.58.02-.04.05-.08.09-.1a.17.17 0 0 1 .14 0c.67.31 1.87 1.11 3.72 3.18 2.27 2.55 3.49 4.83 3.26 6.11-.02.1-.09.15-.17.15zm-6.77-9.04c-.09.63.3 1.77 1.08 3.11 1.4 2.39 3.87 5.13 5.54 5.56.08-1.2-1.13-3.34-3.2-5.66-1.65-1.85-2.75-2.66-3.42-3.01z"/><path class="st2" d="M55.56 116.26c2.35-.89 6.59 3.99 6.59 3.99 1.12.89 3.24 4.88.45 5.55-.18.04-.38.04-.58.01.22-1.21-.99-3.48-3.22-5.97-1.82-2.03-2.99-2.83-3.66-3.14.07-.21.2-.36.42-.44z"/><path class="st0" d="M62.3 126c-.1 0-.21-.01-.31-.03a.19.19 0 0 1-.11-.07c-.03-.04-.03-.08-.03-.12.21-1.16-1.01-3.4-3.18-5.83-1.81-2.03-2.96-2.81-3.61-3.1a.17.17 0 0 1-.09-.21c.1-.26.27-.44.52-.53.21-.08.44-.12.68-.12 2.45 0 5.95 3.99 6.09 4.16.81.63 2.17 2.89 1.82 4.45-.16.71-.66 1.18-1.45 1.37-.1.02-.21.03-.33.03zm-.1-.34c.13.01.25 0 .36-.03.67-.16 1.08-.54 1.21-1.12.3-1.36-.95-3.53-1.72-4.14-.06-.06-3.57-4.07-5.86-4.07-.2 0-.39.03-.56.1-.11.04-.2.11-.26.2.7.35 1.85 1.18 3.57 3.11 2.16 2.45 3.37 4.65 3.26 5.95z"/><path class="st1" d="M37.68 116.51c2.23 2.5 3.44 4.76 3.22 5.97-2.73-.46-7.59-7.21-6.88-9.12.68.31 1.85 1.11 3.66 3.15z"/><path class="st0" d="M40.9 122.65h-.03c-1.79-.3-4.44-3.16-5.95-5.76-.54-.93-1.41-2.64-1.06-3.58.02-.04.05-.08.09-.09.04-.02.09-.02.13 0 .68.31 1.87 1.11 3.72 3.18 2.28 2.55 3.49 4.83 3.26 6.11-.01.08-.08.14-.16.14zm-6.77-9.05c-.1.64.3 1.77 1.08 3.12 1.4 2.39 3.87 5.13 5.54 5.56.08-1.2-1.13-3.34-3.2-5.66-1.65-1.85-2.75-2.66-3.42-3.02z"/><path class="st2" d="M34.44 112.93c2.35-.89 6.59 3.99 6.59 3.99 1.12.89 3.24 4.88.45 5.55-.18.04-.37.04-.58.01.22-1.22-.99-3.48-3.22-5.97-1.82-2.03-2.98-2.83-3.66-3.14.07-.21.21-.36.42-.44z"/><path class="st0" d="M41.18 122.67c-.1 0-.2-.01-.31-.03a.164.164 0 0 1-.11-.07c-.03-.04-.04-.08-.03-.13.22-1.16-1-3.4-3.18-5.83-1.81-2.03-2.96-2.81-3.61-3.11-.08-.04-.12-.13-.08-.21.1-.26.27-.44.52-.53.21-.08.44-.12.68-.12 2.45 0 5.95 3.99 6.09 4.16.8.63 2.17 2.89 1.82 4.45-.16.71-.66 1.18-1.46 1.37-.09.04-.21.05-.33.05zm-.09-.34c.13.01.25 0 .35-.02.67-.16 1.07-.54 1.21-1.12.3-1.36-.95-3.53-1.72-4.14-.06-.06-3.57-4.06-5.86-4.06-.2 0-.4.03-.56.1-.11.04-.2.11-.26.2.7.36 1.85 1.19 3.56 3.11 2.17 2.43 3.38 4.63 3.28 5.93z"/><path class="st3" d="M51.2 86.31s.72 2.41 1.56 3.99c-3.52 6.49-9.3 17.64-10.22 22.38 0 0 1.17 1.25 3.02 1.33l12.23-19.39s2.68.75 6.2.75c.17 8.4-.75 17.72-1.68 21.47 0 0 1.34.75 3.27.83 0 0 8.96-19.39 9.05-32.53L51.2 86.31z"/><path class="st0" d="M65.59 117.84c-.01 0-.01 0 0 0-1.95-.08-3.3-.82-3.35-.85-.06-.04-.1-.11-.08-.19.93-3.77 1.83-12.94 1.67-21.26-3-.02-5.4-.58-5.96-.72L45.7 114.1c-.03.05-.09.08-.15.08-1.89-.09-3.08-1.33-3.13-1.38-.04-.04-.05-.09-.04-.14.93-4.79 6.77-16.03 10.2-22.35-.82-1.58-1.53-3.92-1.53-3.94a.14.14 0 0 1 .02-.14.17.17 0 0 1 .13-.07l23.43-1.17c.05 0 .09.02.12.05.04.03.05.07.05.12-.08 13.03-8.97 32.4-9.07 32.6-.02.04-.08.08-.14.08zm-3.08-1.09c.35.17 1.48.66 2.97.75.69-1.53 8.83-19.72 8.99-32.19l-23.04 1.14c.2.61.81 2.48 1.49 3.76.03.05.03.11 0 .16-3.39 6.26-9.21 17.43-10.19 22.25.25.24 1.28 1.11 2.75 1.21l12.18-19.3c.04-.06.12-.09.19-.07.02.01 2.7.74 6.15.74.09 0 .17.07.17.16.16 8.31-.73 17.51-1.66 21.39z"/><path class="st3" d="M69.75 89.86c-10.61 1.68-15.9-.61-18.04-2.03-.31-.86-.51-1.52-.51-1.52l23.43-1.16c-.08 13.14-9.05 32.53-9.05 32.53-1.93-.08-3.27-.83-3.27-.83.07-.27.13-.58.2-.91 5.48-2.52 11.36-26.82 7.24-26.08z" style="opacity:.49"/><g><path class="st0" d="M49.08 72.16c.09 0 .17-.03.24-.1l3.27-3.33c.13-.13.13-.34 0-.47a.344.344 0 0 0-.48 0l-3.27 3.33c-.13.13-.13.34 0 .47.07.07.15.1.24.1z"/></g><g><path d="M62.48 64.12S74.55 68 74.66 84.87c-1.23 3.11-12.85 8.21-23.46 1.44-1.9-1 .11-1.33.11-1.33s-4.25-7.21 1.23-16.75c3.47-4.78 5.81-6.33 9.94-4.11z" style="fill:#fff"/><path class="st0" d="M62.56 89.81c-4.1 0-7.95-1.13-11.45-3.37-.66-.34-.94-.66-.89-.98.06-.35.54-.53.84-.61-.62-1.24-3.62-8.08 1.34-16.72 2.33-3.21 4.26-5.18 6.76-5.18 1.02 0 2.13.33 3.4 1.01.1.03 12.16 4.1 12.27 20.89 0 .02 0 .04-.01.06-.81 2.05-5.86 4.9-12.26 4.9zm-3.4-26.52c-2.36 0-4.23 1.92-6.48 5.03-5.35 9.33-1.26 16.5-1.22 16.57.03.05.03.11.01.15-.02.05-.07.08-.13.09-.31.05-.76.22-.79.38-.02.12.16.34.72.64 3.46 2.2 7.25 3.32 11.28 3.32 6.13 0 11.14-2.74 11.93-4.65-.13-16.51-11.94-20.52-12.06-20.55-1.23-.66-2.29-.98-3.26-.98z"/></g><g><path class="st6" d="M45.14 73.49c-1.04-.67-3.58-.19-3.94.84-.59 1.66.17 4.99 1.68 4.32 1.21-.53 2.89-3.18 2.71-4.51-.04-.28-.21-.49-.45-.65z"/><path class="st0" d="M42.49 78.9c-.36 0-.7-.2-.97-.58-.67-.94-.9-2.87-.48-4.05.28-.78 1.62-1.25 2.77-1.25.41 0 .98.06 1.42.33.3.19.48.45.52.77.2 1.43-1.57 4.13-2.8 4.68-.16.07-.31.1-.46.1zm1.32-5.55c-1.15 0-2.25.46-2.45 1.03-.38 1.08-.17 2.9.44 3.75.21.29.44.44.69.44.1 0 .21-.03.32-.07 1.12-.5 2.79-3.04 2.61-4.33-.03-.22-.16-.4-.37-.53-.29-.19-.73-.29-1.24-.29z"/></g><g><path class="st7" d="m58.41 66.95 2.79-1.45-1.23 3.72-2.57-3.44-.61 2.66z"/><path class="st0" d="M59.97 69.39c-.05 0-.1-.02-.13-.07l-1.53-2.05-1.4 1.3c-.05.05-.13.06-.2.02-.06-.04-.1-.11-.08-.18l.62-2.66a.15.15 0 0 1 .13-.12c.06-.01.13.01.17.06l.82 1.1 2.76-1.43c.06-.03.13-.02.19.02.05.04.07.12.05.18l-1.23 3.72c-.02.06-.07.1-.13.11h-.04zm-1.41-2.34 1.35 1.81 1-3.02-2.35 1.21zm-1.08-.88-.41 1.78L58.1 67l-.62-.83z"/></g><g><path class="st8" d="M62.92 64.28c2.14.88 11.65 5.62 11.75 20.58-.75 1.9-5.39 4.54-11.31 4.76-4.34-11.66-1.88-21.36-.44-25.34z"/><path d="M63.35 89.79c-.07 0-.13-.04-.16-.11-4.4-11.84-1.77-21.75-.44-25.46.02-.04.04-.08.09-.1.04-.02.09-.02.13 0 1.96.8 11.75 5.58 11.85 20.73 0 .02 0 .04-.01.06-.83 2.15-5.75 4.67-11.46 4.88zm-.33-25.29c-1.33 3.79-3.79 13.43.45 24.95 5.77-.25 10.29-2.84 11.03-4.62-.11-14.53-9.24-19.36-11.48-20.33z"/><g><path class="st8" d="M51.31 84.97s-4.25-7.21 1.23-16.75c1.51-2.08 2.8-3.54 4.13-4.35-1.61 3.38-4.18 11.2-2.03 24.22-1.15-.47-2.3-1.05-3.44-1.78-1.9-1 .11-1.34.11-1.34z"/><path d="M54.64 88.25c-.02 0-.04 0-.06-.01a21.5 21.5 0 0 1-3.47-1.8c-.66-.34-.94-.66-.89-.98.06-.35.54-.53.84-.61-.62-1.24-3.62-8.08 1.34-16.72 1.7-2.34 2.95-3.65 4.19-4.42.06-.04.14-.03.2.02.05.05.07.13.04.2C55.17 67.4 52.7 75.15 54.81 88c.01.02.02.05.02.08-.01.1-.09.17-.19.17zm1.63-23.91c-1.05.77-2.16 2.01-3.59 3.98-5.35 9.33-1.26 16.5-1.22 16.57.03.05.03.11.01.15-.02.05-.07.08-.13.09-.31.05-.76.22-.79.38-.02.12.16.34.72.64 1 .64 2.05 1.19 3.15 1.66-1.94-12.16.2-19.76 1.85-23.47z"/></g></g><g><path class="st8" d="M69.97 75.88c-3.54-9.91-9.51-11.99-12.58-12.38 1.5-.64 3.08-.46 5.09.62 0 0 12.07 3.88 12.18 20.75-1.23 3.11-12.85 8.21-23.46 1.44-1.33-.7-.75-1.07-.28-1.23 11.33 6.18 22.85 1.59 19.05-9.2z"/></g><g><path d="M72.43 59.13c4.58 0 5.03-5.66 2.34-5.33 2.91-11.54-4.58-14.42-4.58-14.42s1.23-4.33-5.37-6.55c-8.94-2.66-16.09.55-16.09.55-3.13-.33-2.79-4.88-.45-4.66.89 4.77 5.03-2.88 18.1-2.55C79.46 26.51 80.7 37.6 80.7 37.6s5.14 3.11 4.46 13.65c-2.45 16.64-18.1 14.53-21 13.09 0 0 7.04-1 8.27-5.21z" style="fill:#351920"/><path d="M69.74 65.46c-2.54 0-4.71-.5-5.65-.97-.06-.03-.1-.1-.09-.18a.17.17 0 0 1 .14-.14c.07-.01 6.94-1.03 8.13-5.1.02-.07.08-.12.16-.12 1.5 0 2.41-.63 2.9-1.15.58-.62.93-1.46.93-2.26 0-.79-.4-1.72-1.46-1.58a.165.165 0 0 1-.15-.05c-.04-.04-.05-.1-.04-.15 2.83-11.27-4.41-14.2-4.48-14.23a.17.17 0 0 1-.1-.2c.04-.17 1.1-4.2-5.26-6.34-2.33-.7-4.75-1.05-7.2-1.05-5.16 0-8.73 1.58-8.76 1.59-.03.01-.06.02-.09.01-1.76-.19-2.49-1.64-2.42-2.9.07-1.3.89-2.19 2.01-2.09.08.01.14.06.15.13.24 1.26.67 1.43 1.11 1.43.61 0 1.5-.41 2.72-.97 2.84-1.31 7.19-3.32 14.11-3.15 12.48.32 14.3 10.48 14.45 11.5.64.42 5.12 3.77 4.48 13.75-1.89 12.84-11.53 14.22-15.59 14.22zm-4.99-1.05c1.07.38 2.89.72 4.98.72 3.97 0 13.41-1.35 15.26-13.9.66-10.31-4.34-13.45-4.39-13.48-.05-.03-.08-.07-.08-.12-.01-.11-1.37-10.95-14.14-11.28-6.83-.18-11.15 1.82-13.96 3.12-1.26.58-2.17 1.01-2.86 1.01-.74 0-1.18-.49-1.41-1.58h-.02c-.96 0-1.45.92-1.49 1.78-.06 1.1.57 2.36 2.08 2.55.42-.18 3.94-1.6 8.86-1.6 2.48 0 4.94.36 7.3 1.06 6 2.02 5.65 5.82 5.51 6.61.99.46 7.16 3.82 4.61 14.34.96 0 1.6.77 1.6 1.93 0 .88-.38 1.81-1.02 2.48-.52.56-1.47 1.22-3.02 1.26-1.13 3.49-6.1 4.76-7.81 5.1z"/><path class="st6" d="M48.74 33.39s7.15-3.21 16.09-.55c6.59 2.22 5.37 6.55 5.37 6.55s7.48 2.88 4.58 14.42c2.68-.33 2.23 5.33-2.34 5.33-1.23 4.21-8.27 5.21-8.27 5.21-3.8-.22-19.88-2.88-20.78-14.75-.9-11.89 5.35-16.21 5.35-16.21z"/><path class="st0" d="M64.16 64.51s-.01 0 0 0c-5.54-.33-20.1-3.64-20.95-14.91-.89-11.83 5.37-16.3 5.44-16.35.06-.03 3.7-1.64 8.93-1.64 2.48 0 4.94.36 7.3 1.06 6 2.02 5.65 5.82 5.51 6.61.99.46 7.16 3.82 4.61 14.34.96 0 1.6.77 1.6 1.93 0 .88-.38 1.81-1.02 2.48-.52.56-1.47 1.22-3.02 1.26-1.34 4.17-8.08 5.17-8.37 5.21-.01.01-.02.01-.03.01zm-6.58-32.57c-5.16 0-8.73 1.58-8.76 1.59-.04.03-6.14 4.41-5.26 16.03.97 12.92 19.94 14.55 20.61 14.6.38-.06 6.96-1.13 8.11-5.09.02-.07.08-.12.16-.12 1.5 0 2.41-.63 2.9-1.15.58-.62.93-1.46.93-2.26 0-.79-.4-1.72-1.46-1.58a.165.165 0 0 1-.15-.05c-.04-.04-.05-.1-.04-.15 2.83-11.25-4.41-14.2-4.48-14.23a.17.17 0 0 1-.1-.2c.04-.17 1.1-4.2-5.26-6.34a25.39 25.39 0 0 0-7.2-1.05z"/><g style="opacity:.4"><path d="M44.83 54.46c1.75 2.29 4.18 4.61 6.65 6.12 3.25 1.99 7.38 2.22 11.02 1.23 5.3-1.44 9.36-6.97 9.19-12.39-.32-9.71-7.86-17.13-17.67-16.79-1.66.06-3.39.27-5.07.67 1.22-.49 7.83-2.87 15.88-.47 6.59 2.22 5.37 6.55 5.37 6.55s7.48 2.88 4.58 14.42c2.68-.33 2.23 5.33-2.34 5.33-1.23 4.21-8.27 5.21-8.27 5.21-3.21-.19-15.18-2.12-19.36-9.86 0-.01.01-.01.02-.02z" style="fill:#d76b2a"/></g><g><path class="st0" d="M59.38 61.34c.04 0 .08-.02.12-.05.07-.06.07-.17 0-.23-2.33-2.39-.82-6.69-.8-6.73a.163.163 0 0 0-.1-.21c-.09-.03-.18.01-.21.1-.07.18-1.6 4.54.87 7.08.04.03.08.04.12.04z"/></g><g><path d="M49 43.59c-.09.64.23 1.21.72 1.27.48.06.94-.4 1.03-1.04.08-.64-.23-1.21-.72-1.27-.48-.06-.94.4-1.03 1.04z"/></g><g><path d="M60.33 46.86c-.09.64.23 1.21.71 1.27.48.07.94-.4 1.03-1.04.09-.64-.23-1.21-.71-1.27-.48-.06-.95.4-1.03 1.04z"/></g></g><g><path class="st12" d="M58.05 58.93s-8.21 1.41-9.47 16.39c-1.26 14.98-8.3 23.3-18.35 22.72-10.05-.58-13.57-10.32-13.57-10.32l10.22-10.24s-.08 8.65 4.86 8.9 13.36-7.68 15.5-17.31C49.76 57.78 58.05 58 58.05 58v.93z"/><path class="st0" d="M31.2 98.23c-.32 0-.66-.01-.99-.03-10.05-.58-13.69-10.33-13.72-10.42a.174.174 0 0 1 .04-.18l10.22-10.24c.05-.05.12-.06.18-.04.06.03.1.09.1.16 0 .08-.03 8.5 4.7 8.73.07 0 .15.01.22.01 5.08 0 13.05-7.93 15.11-17.18 2.42-10.88 10.07-11.2 10.94-11.2.09 0 .2.08.2.17v.92c0 .08-.06.15-.14.16-.08.01-8.1 1.58-9.33 16.24-1.19 14.34-7.75 22.9-17.53 22.9zM16.84 87.76c.41 1.01 4.1 9.57 13.39 10.11.33.02.65.03.97.03 9.59 0 16.02-8.44 17.2-22.59 1.17-13.86 8.37-16.23 9.47-16.51v-.61c-1.38.05-8.22.8-10.48 10.93-2.13 9.54-10.51 17.68-15.67 17.44-4.48-.23-4.96-6.93-5.01-8.67l-9.87 9.87z"/><path class="st12" d="m45 72.27 1.51.72-1.51-.72z"/><path class="st0" d="M46.51 73.16c.06 0 .12-.03.15-.09.04-.08 0-.18-.08-.22l-1.51-.72a.16.16 0 0 0-.22.08c-.04.08 0 .18.08.22l1.51.72c.02 0 .05.01.07.01z"/><path class="st12" d="m46.23 69.35 1.39.7-1.39-.7z"/><path class="st0" d="M47.63 70.22c.06 0 .12-.03.15-.09a.16.16 0 0 0-.08-.22l-1.39-.7a.164.164 0 0 0-.22.07.16.16 0 0 0 .08.22l1.39.7c.01.01.04.02.07.02z"/><g><path class="st12" d="m48.07 64.84 1 .44-1-.44z"/><path class="st0" d="M49.08 65.45c.07 0 .13-.04.15-.1.04-.08 0-.18-.08-.22l-1.01-.45c-.09-.04-.18 0-.22.09-.04.08 0 .18.08.22l1 .44c.03.02.05.02.08.02z"/></g><g><path class="st12" d="m49.64 62.7 1 .59-1-.59z"/><path class="st0" d="M50.64 63.45c.06 0 .11-.03.14-.08.05-.08.02-.18-.06-.23l-1-.59c-.08-.05-.18-.02-.23.06-.05.08-.02.18.06.23l1 .59c.03.01.06.02.09.02z"/></g><g><path class="st12" d="M45.11 68.87c-.24.55-.18 1.1.13 1.24.32.13.76-.2 1-.75s.18-1.1-.13-1.24c-.32-.14-.76.2-1 .75z"/><path class="st0" d="M45.38 70.3c-.07 0-.15-.02-.21-.04-.4-.18-.5-.81-.22-1.45.28-.63.82-1.01 1.22-.84.4.18.5.81.22 1.45-.23.53-.64.88-1.01.88zm.58-2.05c-.19 0-.51.24-.7.68-.21.5-.15.93.05 1.02.18.08.55-.15.78-.66.21-.49.15-.93-.04-1.02-.04-.01-.06-.02-.09-.02z"/><path class="st12" d="M43.77 72.03c-.24.55-.18 1.1.13 1.24.31.13.76-.2 1-.75s.18-1.1-.13-1.23c-.32-.14-.77.19-1 .74z"/><path class="st0" d="M44.04 73.46c-.08 0-.15-.01-.21-.04-.4-.17-.5-.81-.22-1.45.28-.63.82-1.01 1.22-.84.4.18.5.81.22 1.45-.23.53-.64.88-1.01.88zm.58-2.04c-.2 0-.5.24-.7.68-.21.49-.15.93.04 1.01.18.08.55-.15.78-.66.22-.49.15-.93-.04-1.02-.03-.01-.05-.01-.08-.01z"/><g><path class="st12" d="M46.95 64.54c-.24.55-.18 1.1.13 1.24.31.13.76-.2 1-.75s.18-1.1-.13-1.23c-.32-.14-.76.19-1 .74z"/><path class="st0" d="M47.23 65.97c-.07 0-.15-.01-.21-.04-.4-.18-.49-.81-.22-1.45.28-.63.82-1.01 1.22-.84.4.17.5.81.22 1.46-.24.52-.64.87-1.01.87zm.57-2.04c-.19 0-.51.24-.7.68-.22.5-.15.93.04 1.02.18.08.56-.16.78-.66.22-.49.15-.93-.04-1.02a.188.188 0 0 0-.08-.02z"/></g><g><path class="st12" d="M48.52 62.21c-.24.55-.18 1.1.13 1.24.31.14.76-.2 1-.75s.18-1.1-.13-1.24c-.32-.13-.77.2-1 .75z"/><path class="st0" d="M48.79 63.64c-.07 0-.15-.01-.21-.04-.4-.17-.5-.81-.22-1.45.28-.63.82-1.01 1.22-.84.4.17.5.81.22 1.45-.23.53-.64.88-1.01.88zm.58-2.04c-.2 0-.5.24-.7.68-.22.49-.15.93.04 1.02.19.08.55-.15.78-.66.22-.49.15-.93-.04-1.02-.03-.02-.06-.02-.08-.02z"/></g></g><g><path class="st12" d="M30.64 94.51C42.6 95.18 46.73 81.2 48.41 70c1.27-8.48 6.95-10.92 9.64-11.61v.54s-8.21 1.41-9.47 16.39c-1.26 14.98-8.3 23.3-18.35 22.72-10.05-.58-13.57-10.32-13.57-10.32l2.42-2.42c2.18 4.48 5.79 8.89 11.56 9.21z"/></g><g><path class="st12" d="M17.59 76.66c-3.52 4.17-4.88 8.81-3.04 10.34 1.84 1.54 6.2-.6 9.73-4.78 3.52-4.18 4.88-8.81 3.04-10.34-1.86-1.54-6.21.6-9.73 4.78z"/><path class="st0" d="M16.1 87.67c-.67 0-1.23-.18-1.65-.54-.95-.79-1.14-2.34-.55-4.36.58-1.97 1.84-4.18 3.56-6.22 2.69-3.19 6.03-5.33 8.31-5.33.67 0 1.23.18 1.66.54 1.91 1.59.56 6.34-3.02 10.58-2.7 3.18-6.04 5.33-8.31 5.33zm9.67-16.12c-2.18 0-5.42 2.09-8.05 5.22-1.69 2-2.93 4.17-3.5 6.1-.55 1.89-.4 3.31.44 4.01.37.31.85.46 1.44.46 2.18 0 5.42-2.09 8.05-5.21 3.46-4.1 4.83-8.63 3.06-10.11-.37-.31-.86-.47-1.44-.47z"/><g><path class="st12" d="M17.99 77.04c2.83-3.35 6.33-5.07 7.81-3.84.79.66.84 2.02.3 3.65-1.72.3-4.02 1.84-5.99 4.18-1.33 1.57-2.27 3.22-2.74 4.66-.74.13-1.37.03-1.82-.34-1.48-1.24-.39-4.96 2.44-8.31z"/><path class="st0" d="M16.79 85.91c-.54 0-.99-.15-1.34-.44-1.58-1.32-.51-5.07 2.42-8.54 2.17-2.57 4.86-4.3 6.7-4.3.55 0 1 .15 1.35.44.82.68.95 2.04.35 3.83-.02.06-.07.1-.13.11-1.75.3-4 1.88-5.89 4.12-1.26 1.49-2.22 3.13-2.71 4.6-.02.06-.07.1-.13.11-.22.05-.43.07-.62.07zm7.77-12.94c-1.74 0-4.33 1.68-6.44 4.18-2.77 3.28-3.87 6.9-2.46 8.07.37.31.92.42 1.58.32.51-1.49 1.48-3.13 2.74-4.62 1.9-2.25 4.19-3.86 5.99-4.22.51-1.58.4-2.81-.28-3.38-.28-.23-.66-.35-1.13-.35z"/><path class="st12" d="M26.11 76.85c-.48 1.44-1.42 3.09-2.74 4.66-1.98 2.34-4.28 3.88-5.99 4.18.48-1.44 1.41-3.09 2.74-4.66 1.97-2.34 4.27-3.88 5.99-4.18z"/><path class="st0" d="M17.37 85.86c-.05 0-.1-.02-.13-.06a.157.157 0 0 1-.03-.16c.5-1.52 1.49-3.19 2.77-4.71 1.94-2.3 4.27-3.92 6.09-4.24.06-.01.12.01.16.06.04.04.05.11.03.16-.5 1.52-1.49 3.19-2.77 4.71-1.94 2.3-4.27 3.92-6.09 4.24h-.03zm8.48-8.78c-1.7.41-3.82 1.94-5.61 4.06-1.18 1.4-2.1 2.92-2.62 4.33 1.7-.41 3.82-1.95 5.61-4.07 1.19-1.39 2.11-2.92 2.62-4.32z"/><g><path class="st12" d="M26.11 76.85c-.48 1.44-1.42 3.09-2.74 4.66-1.98 2.34-4.28 3.88-5.99 4.18.48-1.44 1.41-3.09 2.74-4.66 1.97-2.34 4.27-3.88 5.99-4.18z"/></g></g></g></g><g><path class="st0" d="M57.56 83.69c.72 0 1.31-.19 1.78-.56 5.53-4.37 6.24-15.63 6.27-16.11a.33.33 0 0 0-.32-.35.334.334 0 0 0-.35.31c0 .11-.72 11.44-6.02 15.63-.45.36-1.1.49-1.93.37-2.72-.38-6.58-3.25-8.21-5.56-.1-.16-.32-.19-.47-.09-.15.11-.19.31-.08.46 1.71 2.43 5.69 5.43 8.66 5.84.24.04.47.06.67.06z"/><path class="st6" d="M48.52 77.61c.08-.69-.2-1.68-.33-2.09-.3-.95-.88-1.86-1.84-2.24-1.39-.55-2.06 1.5-2.4 2.66-.69 2.36 4.35 3.56 4.57 1.67z"/><path class="st0" d="M47.02 78.7c-.98 0-2.3-.45-2.94-1.3-.35-.46-.45-.99-.3-1.52.25-.86.83-2.88 2.11-2.88.17 0 .34.04.52.11 1.14.45 1.68 1.52 1.95 2.34.16.51.42 1.47.34 2.16-.09.69-.71 1.09-1.68 1.09zm-1.14-5.35c-1.02 0-1.58 1.91-1.78 2.63-.13.44-.04.85.25 1.23.58.76 1.78 1.16 2.68 1.17.37 0 1.25-.08 1.33-.79.07-.66-.21-1.64-.33-2.02-.24-.75-.74-1.73-1.75-2.14a.984.984 0 0 0-.4-.08z"/></g><g><path class="st2" d="M18.31 66.79c-.29.57-.26 1.17.07 1.34.33.17.83-.17 1.13-.74.29-.57.26-1.17-.07-1.34-.33-.17-.83.16-1.13.74z"/><path class="st0" d="M18.57 68.33c-.09 0-.18-.02-.26-.06-.22-.11-.34-.34-.36-.66-.01-.28.06-.6.22-.91.33-.65.94-1.02 1.35-.81.14.07.25.2.31.38.11.32.05.77-.17 1.18-.27.53-.7.88-1.09.88zm.68-2.16c-.22 0-.56.24-.79.69-.13.25-.19.52-.18.74.01.19.07.33.18.38.2.1.63-.13.9-.67.17-.34.23-.69.15-.93a.353.353 0 0 0-.14-.19c-.04-.01-.07-.02-.12-.02z"/><path class="st0" d="M18.07 67.75s.01 0 0 0c.1 0 .17-.08.17-.17 0-.03-.1-3.13 1.6-5.34.03-.04.04-.1.03-.15a.198.198 0 0 0-.11-.11l-2.47-.75c-.06-.02-.13 0-.17.05-.04.05-1.05 1.19-.96 2.66 0 .09.09.16.18.16s.16-.08.15-.18c-.06-1.12.6-2.06.82-2.34l2.14.65c-1.63 2.28-1.53 5.24-1.53 5.36-.01.09.07.16.15.16z"/><path class="st0" d="M19.12 63.09c.07 0 .14-.04.16-.11a.165.165 0 0 0-.11-.21l-2.43-.79a.165.165 0 0 0-.21.11c-.03.09.02.18.11.21l2.43.79h.05z"/><g><path class="st2" d="M16.03 64.13c-.21.41-.19.84.05.97.24.12.6-.12.81-.53.21-.41.19-.85-.05-.96-.24-.13-.6.1-.81.52z"/><path class="st0" d="M16.22 65.29c-.07 0-.15-.01-.21-.05-.33-.16-.38-.68-.13-1.19.25-.49.72-.77 1.04-.61.17.08.28.27.29.51.01.21-.05.45-.16.68-.21.39-.54.66-.83.66zm.49-1.56c-.14 0-.37.17-.52.47-.19.37-.14.68-.02.74.02.01.04.01.06.01.14 0 .37-.16.52-.47.09-.18.13-.36.13-.51-.01-.12-.04-.2-.1-.23-.03-.01-.05-.01-.07-.01z"/></g><g><path class="st7" d="M9.58 72.74c0 .51.36.91.81.91.45 0 .81-.41.81-.91s-.36-.91-.81-.91c-.44 0-.81.41-.81.91z"/><path class="st0" d="M10.39 73.82c-.54 0-.98-.48-.98-1.08 0-.6.44-1.08.98-1.08s.98.48.98 1.08c0 .6-.44 1.08-.98 1.08zm0-1.83c-.35 0-.64.34-.64.75s.29.75.64.75c.36 0 .64-.34.64-.75.01-.41-.28-.75-.64-.75z"/><path class="st0" d="M9.58 72.91c.09 0 .17-.07.17-.17v-4.13c0-.09-.07-.16-.16-.17l-2.51-.11c-.08-.01-.18.07-.18.16s.07.17.16.18l2.35.1v3.97c.01.1.08.17.17.17z"/><g><path class="st0" d="M9.64 69.89c.09 0 .16-.07.17-.16 0-.09-.07-.17-.16-.17L7.8 69.5c-.09 0-.16.07-.17.16 0 .09.07.17.16.17l1.85.06z"/></g></g></g></svg>